<svg width="65" height="28" viewBox="0 0 65 28" fill="none" xmlns="http://www.w3.org/2000/svg">
<path d="M24.8256 11.8005C24.2607 12.3664 23.9092 13.1562 23.9092 14.0314C23.9092 14.9759 24.32 15.8186 24.9638 16.3885L38.5437 27.9581L38.5318 22.613L30.8848 16.1605C29.2218 14.9962 29.5892 13.6406 29.5892 13.6406C29.842 12.9078 31.1652 11.7069 31.1652 11.7069L38.595 5.39285V0.0395508L30.1501 7.3754L24.8256 11.8005ZM25.1771 16.5595C25.1653 16.5513 25.1534 16.5432 25.1416 16.531C25.1534 16.5432 25.1653 16.5513 25.1771 16.5595Z" fill="#ED1C24"/>
<path d="M23.8064 0H19.8091V28H23.8064V0Z" fill="black"/>
<path d="M53.0393 10.1396C53.0393 10.1396 52.7628 10.3675 52.5179 10.4653C52.1111 10.6484 51.6727 10.6973 51.2105 10.6566C50.8432 10.6077 50.4166 10.3024 50.2388 10.1599L50.1519 10.0867L48.4811 8.71474L46.8221 7.29805L45.3014 6.01978L38.5984 0.0395508V5.39285L46.1783 11.943C46.1783 11.943 47.3396 12.7206 47.4739 13.6365C47.4739 13.6365 47.8412 14.9921 46.1783 16.1564L38.5312 22.613L38.5431 27.9622L64.9997 5.52312V0.0395508L53.0393 10.1396Z" fill="#28397D"/>
<path d="M5.15465 8.31243C4.03288 7.47382 3.89068 6.54157 4.10792 5.74366C4.17112 5.53197 5.1586 2.45841 9.30208 3.01613C9.57462 3.06905 9.83532 3.13418 10.0723 3.2156C10.8544 3.4965 12.1658 4.17228 13.2402 5.73145C13.4653 6.08969 13.7102 6.36652 13.7102 7.10336H15.7839C16.7872 7.12779 17.7075 7.17257 17.7075 7.17257L17.6483 6.80211L17.6443 6.77361L17.6364 6.76954C17.3402 5.84137 16.9491 4.97425 16.4475 4.17635C15.9103 3.31738 15.2586 2.57239 14.4923 1.95361C13.726 1.33075 12.8491 0.85038 11.8616 0.508421C10.8741 0.166461 9.77607 0.0158355 8.56344 0.056545C7.10592 0.105396 5.81034 0.341512 4.67671 0.756749C3.54703 1.16384 2.59905 1.71749 1.82882 2.40955C1.05858 3.10162 0.576689 3.83846 0.213296 4.90505C0.213296 4.90505 -0.979582 8.86608 2.7373 11.4308L9.40873 16.6538C9.90247 16.9998 11.4627 18.099 12.5647 18.9498C12.9716 19.3081 13.4061 19.7803 13.6549 20.3095C13.7576 20.6067 13.8366 20.9731 13.8287 21.3761C13.8287 21.3761 13.7339 22.7114 12.6951 23.6477C12.6911 23.6518 12.6832 23.6599 12.6793 23.664C12.4067 23.9082 12.067 24.1199 11.6483 24.2746C11.3876 24.3642 11.123 24.4293 10.8662 24.4741C10.7715 24.4904 10.6806 24.5107 10.5779 24.5189C10.021 24.5922 9.55092 24.5922 9.37318 24.6085C9.32973 24.6125 9.29023 24.6166 9.24678 24.6166C7.76951 24.5677 7.00322 24.1525 6.24088 23.6029C6.12239 23.5134 6.00784 23.4157 5.90514 23.318C5.84194 23.2569 5.78269 23.2121 5.72344 23.1673C4.95321 22.4183 4.60562 21.5593 4.45552 21.026C4.42392 20.8632 4.38837 20.6963 4.34492 20.5253L0 20.68C0.205396 21.7669 0.54904 22.7602 1.02698 23.6599C1.50492 24.5637 2.14086 25.3331 2.93085 25.9722C3.72083 26.6114 4.37652 27.0999 5.4825 27.4378C6.58848 27.7797 7.8722 27.9222 9.32973 27.8734C10.882 27.8204 12.2882 27.682 13.4219 27.1406C14.7214 26.5177 14.9386 26.3264 15.7207 25.6058C16.5028 24.8812 17.0558 23.9123 17.435 22.9638C17.8142 22.0153 17.8221 21.3191 17.7865 20.2281C17.7865 20.2281 17.7312 18.6201 16.6094 17.2278C16.0407 16.5195 15.1322 15.6361 14.3501 15.0336C13.568 14.4311 12.7662 13.8408 11.9406 13.2709C11.119 12.7009 10.3172 12.1351 9.53512 11.5733L5.15465 8.31243Z" fill="black"/>
<path d="M27.681 9.45662C27.681 9.45662 26.6658 10.7553 27.3887 12.5465C27.7718 13.495 28.8778 14.3947 30.3511 15.7177C30.3511 15.7177 28.7593 14.1871 30.0944 12.8355L31.0423 11.8259L34.9567 8.4918L32.2194 5.62585L28.9765 8.3941L27.681 9.45662Z" fill="url(#paint0_linear)"/>
<path d="M56.3738 12.6892C56.3738 12.6892 55.1453 13.7761 53.3837 13.0881C52.4515 12.7258 51.543 11.6145 50.2158 10.1408C50.2158 10.1408 51.3139 11.3661 53.04 10.1448L54.225 9.16782L57.9774 5.9762L62.1841 7.91397L57.7365 11.6877L56.3738 12.6892Z" fill="url(#paint1_linear)"/>
<path opacity="0.29" d="M5.08804 13.2468L8.96687 16.3489L9.5475 11.5655L6.01627 8.94791L4.86289 8.07266C3.56337 6.85952 4.15981 5.62195 4.15981 5.62195C4.15981 5.62195 2.0308 10.0959 5.08804 13.2468Z" fill="url(#paint2_linear)"/>
<path d="M38.5986 0.0395508V5.39285L42.9475 9.15441L43.1331 4.08607" fill="url(#paint3_linear)"/>
<path d="M38.5986 28V22.6467L42.9475 18.8851L43.1331 23.9535" fill="url(#paint4_linear)"/>
<defs>
<linearGradient id="paint0_linear" x1="27.1306" y1="10.6706" x2="34.9572" y2="10.6706" gradientUnits="userSpaceOnUse">
<stop stop-color="#860101"/>
<stop offset="1" stop-color="#E52925" stop-opacity="0"/>
</linearGradient>
<linearGradient id="paint1_linear" x1="50.2146" y1="9.64343" x2="62.1846" y2="9.64343" gradientUnits="userSpaceOnUse">
<stop stop-color="#000139"/>
<stop offset="0.6115" stop-color="#273C80" stop-opacity="0.9534"/>
<stop offset="1" stop-color="#273E81" stop-opacity="0"/>
</linearGradient>
<linearGradient id="paint2_linear" x1="2.85639" y1="10.3015" x2="8.80246" y2="11.3344" gradientUnits="userSpaceOnUse">
<stop stop-color="white"/>
<stop offset="1" stop-color="white" stop-opacity="0"/>
</linearGradient>
<linearGradient id="paint3_linear" x1="38.598" y1="4.5984" x2="43.1322" y2="4.5984" gradientUnits="userSpaceOnUse">
<stop stop-color="#000139"/>
<stop offset="0.2265" stop-color="#273C80" stop-opacity="0.9534"/>
<stop offset="1" stop-color="#273E81" stop-opacity="0"/>
</linearGradient>
<linearGradient id="paint4_linear" x1="38.598" y1="23.4424" x2="43.1322" y2="23.4424" gradientUnits="userSpaceOnUse">
<stop stop-color="#000139"/>
<stop offset="0.2265" stop-color="#273C80" stop-opacity="0.9534"/>
<stop offset="1" stop-color="#273E81" stop-opacity="0"/>
</linearGradient>
</defs>
</svg>
